<svg width="340" height="170" viewBox="0 0 340 170" fill="none" xmlns="http://www.w3.org/2000/svg">
<path d="M2.25566 92.371C6.7933 82.2745 17.3811 81.8357 25.7002 84.0304C25.3219 81.3966 25.3219 78.3239 25.3219 76.129C25.7002 67.7886 30.2377 61.2038 35.1534 55.9362C45.7413 44.084 62.3792 39.2553 75.9921 45.8399C75.6139 38.3773 76.3702 32.2316 80.5296 26.0861C85.8236 19.0625 95.2769 14.6728 102.84 12.9169C110.78 10.722 120.234 13.7948 127.418 18.1845C129.687 19.5015 131.578 21.2574 133.09 23.0133C134.981 14.2338 137.628 7.64921 145.191 3.69846C153.888 -1.13025 164.476 -0.691272 173.551 1.94256C189.055 6.33229 202.289 19.9404 205.314 37.9383C207.205 35.3045 209.474 33.1096 211.365 31.3537C218.55 23.4521 228.758 21.6963 238.591 20.8184C257.497 19.5015 271.11 30.0369 280.186 48.4736C287.37 40.5722 299.47 37.9383 308.924 40.1332C311.191 40.5722 313.083 41.45 315.352 41.8891C326.695 48.9126 337.284 56.8142 339.552 73.0562C341.443 88.4202 337.284 102.028 328.208 112.125C322.537 116.953 315.352 118.709 307.789 118.27C307.789 120.026 307.789 121.782 307.411 123.977C305.52 133.195 297.2 139.341 290.394 143.292C276.403 150.754 252.582 153.827 240.482 139.78C240.482 140.219 240.482 140.219 240.104 140.658C238.212 145.926 234.808 150.315 230.65 154.266C223.087 161.729 211.743 165.679 201.911 168.752C184.139 174.02 161.829 162.167 156.157 141.536C154.644 147.682 149.729 152.949 145.569 155.583C138.006 160.851 129.687 162.167 120.99 159.973C110.402 157.339 99.0583 147.682 96.4115 135.39C90.7394 147.682 73.7233 146.803 63.8917 141.975C58.2197 138.902 51.7913 133.195 48.7664 125.733C45.3632 130.122 36.666 131.879 32.8846 131.879C23.4313 132.317 13.9779 128.367 7.17144 120.465C0.364997 113.442 -2.28196 101.589 2.25566 92.371Z" fill="white"/>
</svg>
